<svg xmlns="http://www.w3.org/2000/svg" xmlns:xlink="http://www.w3.org/1999/xlink" version="1.1" x="0px" y="0px" viewBox="0 0 1024 1280" style="enable-background:new 0 0 1024 1024;" xml:space="preserve"><g><g><g><path d="M869.5,527.4c0,27.7,0,55.3,0,83c0,41.8,0,83.6,0,125.4c0,13.9,0.4,27.8-1.4,41.6c0.5-3.5,1-7.1,1.4-10.6     c-1.9,13.4-5.4,26.3-10.6,38.8c1.3-3.2,2.7-6.4,4-9.6c-5.2,12.1-11.8,23.5-19.8,33.9c2.1-2.7,4.2-5.4,6.3-8.1     c-8,10.3-17.3,19.6-27.6,27.6c2.7-2.1,5.4-4.2,8.1-6.3c-10.5,8-21.8,14.7-33.9,19.8c3.2-1.3,6.4-2.7,9.6-4     c-12.4,5.2-25.4,8.7-38.8,10.6c3.5-0.5,7.1-1,10.6-1.4c-20.9,2.7-42.7,1.4-63.7,1.4c-39.9,0-79.7,0-119.6,0     c-48.9,0-97.9,0-146.8,0c-41.7,0-83.5,0-125.2,0c-18.2,0-36.4,0.1-54.5,0c-7,0-13.9-0.5-20.8-1.4c3.5,0.5,7.1,1,10.6,1.4     c-13.4-1.9-26.3-5.4-38.8-10.6c3.2,1.3,6.4,2.7,9.6,4c-12.1-5.2-23.5-11.8-33.9-19.8c2.7,2.1,5.4,4.2,8.1,6.3     c-10.3-8-19.6-17.3-27.6-27.6c2.1,2.7,4.2,5.4,6.3,8.1c-8-10.5-14.7-21.8-19.8-33.9c1.3,3.2,2.7,6.4,4,9.6     c-5.2-12.4-8.7-25.4-10.6-38.8c0.5,3.5,1,7.1,1.4,10.6c-2.7-20.9-1.4-42.7-1.4-63.7c0-39.9,0-79.7,0-119.6c0-48.9,0-97.9,0-146.8     c0-41.7,0-83.5,0-125.2c0-18.2-0.1-36.4,0-54.5c0-7,0.5-13.9,1.4-20.8c-0.5,3.5-1,7.1-1.4,10.6c1.9-13.4,5.4-26.3,10.6-38.8     c-1.3,3.2-2.7,6.4-4,9.6c5.2-12.1,11.8-23.5,19.8-33.9c-2.1,2.7-4.2,5.4-6.3,8.1c8-10.3,17.3-19.6,27.6-27.6     c-2.7,2.1-5.4,4.2-8.1,6.3c10.5-8,21.8-14.7,33.9-19.8c-3.2,1.3-6.4,2.7-9.6,4c12.4-5.2,25.4-8.7,38.8-10.6     c-3.5,0.5-7.1,1-10.6,1.4c12.1-1.6,24.3-1.4,36.5-1.4c17.7,0,35.4,0,53.1,0c43.2,0,86.5,0,129.7,0c10.2,0,20.5,0,30.7,0     c20.9,0,41-18.4,40-40c-1-21.7-17.6-40-40-40c-25.3,0-50.6,0-75.8,0c-40.9,0-81.8,0-122.7,0c-9.9,0-19.9,0-29.8,0     c-31,0-60.7,7.4-88.4,21C115.6,127.1,74.8,196.3,74.5,267.4c-0.1,14,0,28,0,42.1c0,34.4,0,68.8,0,103.2c0,43.3,0,86.5,0,129.8     c0,40.6,0,81.2,0,121.8c0,26.4,0,52.9,0,79.3c0,4.3,0,8.6,0,13c0.1,33.6,8.9,67.1,25.7,96.3c34.1,59.4,99.1,96.4,167.4,96.7     c15.5,0.1,31,0,46.5,0c35.2,0,70.4,0,105.6,0c43.4,0,86.8,0,130.2,0c40.1,0,80.2,0,120.3,0c25.3,0,50.6,0,75.9,0     c4.4,0,8.9,0.1,13.3,0c35.7-0.7,72-11,101.8-30.8c29-19.2,54-45.8,68.7-77.5c12.6-27.2,19.6-55.7,19.6-85.8c0-29.7,0-59.3,0-89     c0-39.4,0-78.7,0-118.1c0-7,0-13.9,0-20.9c0-20.9-18.4-41-40-40C887.8,488.4,869.5,505,869.5,527.4L869.5,527.4z"/></g></g><g><g><path d="M687.5,154.5c25,0,50.1,0,75.1,0c39.9,0,79.7,0,119.6,0c9.1,0,18.2,0,27.3,0c20.9,0,41-18.4,40-40     c-1-21.7-17.6-40-40-40c-25,0-50.1,0-75.1,0c-39.9,0-79.7,0-119.6,0c-9.1,0-18.2,0-27.3,0c-20.9,0-41,18.4-40,40     C648.5,136.2,665.1,154.5,687.5,154.5L687.5,154.5z"/></g></g><g><g><path d="M949.5,336.5c0-25,0-50.1,0-75.1c0-39.9,0-79.7,0-119.6c0-9.1,0-18.2,0-27.3c0-20.9-18.4-41-40-40     c-21.7,1-40,17.6-40,40c0,25,0,50.1,0,75.1c0,39.9,0,79.7,0,119.6c0,9.1,0,18.2,0,27.3c0,20.9,18.4,41,40,40     C931.2,375.5,949.5,358.9,949.5,336.5L949.5,336.5z"/></g></g><g><g><path d="M541.1,539.5c13.2-13.2,26.5-26.5,39.7-39.7c31.5-31.5,63.1-63.1,94.6-94.6     c38.1-38.1,76.2-76.2,114.4-114.4c33.1-33.1,66.1-66.1,99.2-99.2c16-16,32.3-31.9,48.1-48.1c0.2-0.2,0.4-0.4,0.7-0.7     c14.8-14.8,15.9-42,0-56.6c-16-14.7-40.8-15.8-56.6,0c-13.2,13.2-26.5,26.5-39.7,39.7c-31.5,31.5-63.1,63.1-94.6,94.6     c-38.1,38.1-76.2,76.2-114.4,114.4c-33.1,33.1-66.1,66.1-99.2,99.2c-16,16-32.3,31.9-48.1,48.1c-0.2,0.2-0.4,0.4-0.7,0.7     c-14.8,14.8-15.9,42,0,56.6C500.5,554.1,525.3,555.3,541.1,539.5L541.1,539.5z"/></g></g></g></svg>